<svg xmlns="http://www.w3.org/2000/svg" viewBox="0 0 860 440" font-family="system-ui, -apple-system, sans-serif">
  <defs>
    <filter id="shadow" x="-2%" y="-2%" width="104%" height="104%">
      <feDropShadow dx="0" dy="1" stdDeviation="2" flood-opacity="0.1"/>
    </filter>
  </defs>

  <!-- Background -->
  <rect width="860" height="440" fill="#f3f4f6" rx="8"/>

  <!-- Breadcrumb -->
  <text x="20" y="24" fill="#6b7280" font-size="12">Pods</text>
  <text x="52" y="24" fill="#9ca3af" font-size="12">/</text>
  <text x="62" y="24" fill="#111827" font-size="12">api-server-7b8f9c6d4-2xk9p</text>

  <!-- Header -->
  <text x="20" y="54" fill="#111827" font-size="20" font-weight="bold">api-server-7b8f9c6d4-2xk9p</text>
  <text x="20" y="72" fill="#6b7280" font-size="12">Namespace: production</text>
  <rect x="340" y="40" width="58" height="22" fill="#dcfce7" rx="4"/>
  <text x="350" y="55" fill="#16a34a" font-size="11" font-weight="500">Healthy</text>

  <!-- Metadata cards -->
  <rect x="20" y="88" width="200" height="72" fill="#fff" rx="8" filter="url(#shadow)"/>
  <text x="36" y="112" fill="#6b7280" font-size="11">Phase</text>
  <text x="36" y="136" fill="#16a34a" font-size="20" font-weight="bold">Running</text>

  <rect x="232" y="88" width="200" height="72" fill="#fff" rx="8" filter="url(#shadow)"/>
  <text x="248" y="112" fill="#6b7280" font-size="11">Ready</text>
  <text x="248" y="136" fill="#111827" font-size="20" font-weight="bold">1/1</text>

  <rect x="444" y="88" width="200" height="72" fill="#fff" rx="8" filter="url(#shadow)"/>
  <text x="460" y="112" fill="#6b7280" font-size="11">Restarts</text>
  <text x="460" y="136" fill="#111827" font-size="20" font-weight="bold">0</text>

  <rect x="656" y="88" width="184" height="72" fill="#fff" rx="8" filter="url(#shadow)"/>
  <text x="672" y="112" fill="#6b7280" font-size="11">Node</text>
  <text x="672" y="136" fill="#111827" font-size="16" font-weight="bold">node-1</text>

  <!-- Containers Section -->
  <rect x="20" y="176" width="820" height="120" fill="#fff" rx="8" filter="url(#shadow)"/>
  <text x="36" y="204" fill="#111827" font-size="14" font-weight="600">Containers</text>
  <line x1="20" y1="214" x2="840" y2="214" stroke="#e5e7eb" stroke-width="1"/>

  <!-- Container row -->
  <text x="36" y="240" fill="#111827" font-size="12" font-weight="500">api-server</text>
  <rect x="160" y="228" width="56" height="18" fill="#dcfce7" rx="4"/>
  <text x="168" y="241" fill="#16a34a" font-size="10">Running</text>
  <text x="240" y="240" fill="#6b7280" font-size="11">Image: api-server:v2.1.0</text>
  <text x="460" y="240" fill="#6b7280" font-size="11">CPU: 100m / Memory: 256Mi</text>
  <rect x="700" y="226" width="80" height="22" fill="#eff6ff" rx="4" stroke="#bfdbfe" stroke-width="1"/>
  <text x="716" y="241" fill="#2563eb" font-size="11">View Logs</text>

  <text x="36" y="272" fill="#111827" font-size="12" font-weight="500">sidecar-proxy</text>
  <rect x="160" y="260" width="56" height="18" fill="#dcfce7" rx="4"/>
  <text x="168" y="273" fill="#16a34a" font-size="10">Running</text>
  <text x="240" y="272" fill="#6b7280" font-size="11">Image: envoy:v1.28</text>
  <text x="460" y="272" fill="#6b7280" font-size="11">CPU: 50m / Memory: 128Mi</text>
  <rect x="700" y="258" width="80" height="22" fill="#eff6ff" rx="4" stroke="#bfdbfe" stroke-width="1"/>
  <text x="716" y="273" fill="#2563eb" font-size="11">View Logs</text>

  <!-- Events Section -->
  <rect x="20" y="308" width="820" height="120" fill="#fff" rx="8" filter="url(#shadow)"/>
  <text x="36" y="336" fill="#111827" font-size="14" font-weight="600">Events</text>
  <line x1="20" y1="346" x2="840" y2="346" stroke="#e5e7eb" stroke-width="1"/>

  <circle cx="40" cy="368" r="4" fill="#22c55e"/>
  <text x="52" y="372" fill="#374151" font-size="11" font-weight="500">Pulled</text>
  <text x="100" y="372" fill="#6b7280" font-size="11">Successfully pulled image "api-server:v2.1.0"</text>
  <text x="740" y="372" fill="#9ca3af" font-size="10">2 days ago</text>

  <circle cx="40" cy="394" r="4" fill="#22c55e"/>
  <text x="52" y="398" fill="#374151" font-size="11" font-weight="500">Created</text>
  <text x="108" y="398" fill="#6b7280" font-size="11">Created container api-server</text>
  <text x="740" y="398" fill="#9ca3af" font-size="10">2 days ago</text>

  <circle cx="40" cy="420" r="4" fill="#22c55e"/>
  <text x="52" y="424" fill="#374151" font-size="11" font-weight="500">Started</text>
  <text x="106" y="424" fill="#6b7280" font-size="11">Started container api-server</text>
  <text x="740" y="424" fill="#9ca3af" font-size="10">2 days ago</text>
</svg>
